<?xml version="1.0" encoding="UTF-8" standalone="no"?>
<!-- Created with Inkscape (http://www.inkscape.org/) -->

<svg
   xmlns:dc="http://purl.org/dc/elements/1.1/"
   xmlns:cc="http://creativecommons.org/ns#"
   xmlns:rdf="http://www.w3.org/1999/02/22-rdf-syntax-ns#"
   xmlns:svg="http://www.w3.org/2000/svg"
   xmlns="http://www.w3.org/2000/svg"
   xmlns:sodipodi="http://sodipodi.sourceforge.net/DTD/sodipodi-0.dtd"
   xmlns:inkscape="http://www.inkscape.org/namespaces/inkscape"
   width="22.24"
   height="12.53"
   id="svg96928"
   version="1.1"
   inkscape:version="0.48.1 "
   sodipodi:docname="Neues Dokument 3">
  <defs
     id="defs96930">
    <clipPath
       clipPathUnits="userSpaceOnUse"
       id="clipPath90720">
      <path
         inkscape:connector-curvature="0"
         d="m 698.584,479.533 18.549,0 0,9.846 -18.549,0 0,-9.846 z"
         id="path90722" />
    </clipPath>
  </defs>
  <sodipodi:namedview
     id="base"
     pagecolor="#ffffff"
     bordercolor="#666666"
     borderopacity="1.0"
     inkscape:pageopacity="0.0"
     inkscape:pageshadow="2"
     inkscape:zoom="36.97464"
     inkscape:cx="11.097097"
     inkscape:cy="6.3146663"
     inkscape:document-units="px"
     inkscape:current-layer="layer1"
     showgrid="false"
     fit-margin-top="0"
     fit-margin-left="0"
     fit-margin-right="0"
     fit-margin-bottom="0"
     inkscape:window-width="1024"
     inkscape:window-height="708"
     inkscape:window-x="-4"
     inkscape:window-y="-4"
     inkscape:window-maximized="1" />
  <metadata
     id="metadata96933">
    <rdf:RDF>
      <cc:Work
         rdf:about="">
        <dc:format>image/svg+xml</dc:format>
        <dc:type
           rdf:resource="http://purl.org/dc/dcmitype/StillImage" />
        <dc:title></dc:title>
      </cc:Work>
    </rdf:RDF>
  </metadata>
  <g
     inkscape:label="Ebene 1"
     inkscape:groupmode="layer"
     id="layer1"
     transform="translate(-392.73901,-393.67675)">
    <g
       transform="matrix(1.25,0,0,-1.25,-480.70649,1006.1411)"
       id="g90716">
      <g
         id="g90718"
         clip-path="url(#clipPath90720)">
        <g
           id="g90724"
           transform="translate(705.9019,486.35)">
          <path
             inkscape:connector-curvature="0"
             d="m 0,0 -0.002,-0.04 c -0.001,-0.005 -0.012,-0.028 -0.015,-0.031 -0.044,-0.039 -0.109,-0.077 -0.175,-0.113 -0.041,-0.023 -0.084,-0.046 -0.127,-0.07 -0.017,-0.152 -0.013,-0.315 0.012,-0.492 0.021,-0.002 0.055,-0.005 0.121,0.002 0.045,0.004 0.067,0.013 0.077,0.02 0.008,0.006 0.011,0.012 0.012,0.019 0.004,0.015 0.003,0.029 0.006,0.04 0.005,0.027 0.025,0.054 0.066,0.054 0.064,0 0.133,-0.013 0.18,-0.028 0.015,-0.005 0.025,-0.012 0.033,-0.021 0.007,0.005 0.016,0.009 0.026,0.012 0.042,0.015 0.236,0.134 0.281,0.168 0.043,0.034 0.318,0.195 0.458,0.162 0.085,-0.021 0.112,-0.092 0.12,-0.15 0.007,-0.051 0.001,-0.107 0.006,-0.139 0.007,-0.05 0.016,-0.07 0.08,-0.103 0.093,-0.047 0.194,-0.224 0.225,-0.289 0.014,-0.03 0.012,-0.062 0.005,-0.088 C 1.383,-1.113 1.371,-1.14 1.36,-1.162 1.349,-1.184 1.338,-1.206 1.328,-1.225 1.319,-1.245 1.317,-1.253 1.316,-1.255 c 0.005,-0.012 0.008,-0.019 0.012,-0.026 0.01,-0.018 0.024,-0.038 0.04,-0.058 0.033,-0.043 0.073,-0.086 0.097,-0.115 0.027,-0.032 0.049,-0.07 0.063,-0.103 0.006,-0.016 0.011,-0.033 0.014,-0.049 10e-4,-0.008 0.002,-0.02 -0.001,-0.033 0.011,-0.008 0.031,-0.018 0.057,-0.024 0.027,-0.006 0.055,-0.024 0.058,-0.06 0.003,-0.025 -0.01,-0.048 -0.017,-0.06 L 1.63,-1.797 1.663,-1.803 c 0.014,-0.002 0.031,-0.006 0.045,-0.012 0.025,-0.01 0.037,-0.03 0.043,-0.048 0.005,-0.017 0.006,-0.034 0.006,-0.048 l -0.002,-0.027 0.039,0.009 c 0.013,0.002 0.031,0.006 0.046,0.005 0.03,-0.002 0.206,-0.013 0.249,-0.015 0.008,0.004 0.021,0.009 0.034,0.014 0.012,0.005 0.025,0.009 0.035,0.011 0.039,0.009 0.061,-0.015 0.067,-0.029 C 2.229,-1.952 2.231,-1.984 2.198,-2.011 2.184,-2.022 2.166,-2.034 2.143,-2.047 2.097,-2.071 2.029,-2.098 1.942,-2.118 1.858,-2.136 1.808,-2.143 1.762,-2.137 1.74,-2.135 1.72,-2.13 1.696,-2.122 1.675,-2.116 1.65,-2.108 1.618,-2.098 1.591,-2.09 1.558,-2.085 1.52,-2.081 1.481,-2.078 1.439,-2.076 1.395,-2.074 1.306,-2.068 1.205,-2.06 1.105,-2.025 0.916,-1.959 0.6,-1.823 0.435,-1.738 0.418,-1.73 0.405,-1.724 0.396,-1.721 0.394,-1.727 0.392,-1.733 0.389,-1.739 0.384,-1.75 0.377,-1.763 0.366,-1.775 0.342,-1.799 0.307,-1.813 0.259,-1.816 0.245,-1.817 0.23,-1.817 0.214,-1.816 1.306,-2.848 3.714,-2.344 3.967,-0.722 4.199,0.767 2.935,1.97 1.133,2.339 1.146,2.297 1.156,2.252 1.161,2.204 1.172,2.118 1.162,2.034 1.137,1.954 1.191,1.548 1.226,0.967 1.198,0.942 1.206,0.932 1.211,0.92 1.211,0.912 l 0,-0.016 C 1.211,0.884 1.194,0.86 1.183,0.856 0.881,0.73 0.77,0.675 0.606,0.445 0.603,0.441 0.581,0.428 0.576,0.427 L 0.552,0.423 C 0.551,0.423 0.531,0.425 0.53,0.426 0.459,0.452 0.423,0.501 0.429,0.564 0.434,0.616 0.469,0.668 0.503,0.71 0.539,0.755 0.583,0.796 0.618,0.829 l 0.046,0.04 0.014,0.013 C 0.695,0.907 0.711,0.937 0.725,0.967 L 0.732,0.983 0.698,0.972 C 0.662,0.933 0.499,0.894 0.434,0.823 0.366,0.749 0.386,0.631 0.335,0.607 0.33,0.605 0.31,0.593 0.292,0.586 0.283,0.583 0.266,0.577 0.249,0.579 0.234,0.58 0.223,0.586 0.215,0.595 0.22,0.577 0.225,0.559 0.229,0.541 0.25,0.528 0.262,0.501 0.26,0.489 0.253,0.444 0.239,0.404 0.225,0.368 0.212,0.334 0.198,0.3 0.189,0.263 0.184,0.244 0.185,0.227 0.189,0.208 0.193,0.186 0.201,0.165 0.207,0.143 0.221,0.089 0.226,0.026 0.173,-0.055 0.169,-0.061 0.145,-0.075 0.137,-0.076 L 0.12,-0.077 c -0.006,0 -0.031,0.01 -0.036,0.015 C 0.057,-0.032 0.035,-0.012 0,0 M 0.681,2.815 0.749,2.808 C 2.883,2.568 4.672,1.05 4.382,-0.763 3.989,-3.216 -0.302,-3.548 -0.86,-1.066 c -0.208,0.928 0.259,1.629 0.727,2.157 0.229,0.26 0.469,0.486 0.644,0.69 C 0.692,1.99 0.755,2.125 0.742,2.215 0.727,2.445 0.567,2.64 0.567,2.64 0.516,2.729 0.579,2.827 0.681,2.815 M -0.074,-0.22 c 0.031,0.065 0.042,0.105 0.072,0.089 0.03,-0.017 0.029,-0.083 -0.002,-0.148 -0.032,-0.065 -0.034,-0.058 -0.064,-0.042 -0.03,0.016 -0.037,0.036 -0.006,0.101 M 1.702,0.542 C 1.648,0.541 1.631,0.582 1.674,0.614 1.732,0.655 1.767,0.71 1.76,0.765 1.759,0.773 1.772,0.797 1.78,0.802 1.808,0.82 1.829,0.836 1.838,0.851 1.843,0.859 1.845,0.866 1.829,0.88 1.815,0.892 1.814,0.919 1.827,0.933 l 0.038,0.04 C 1.859,0.987 1.853,0.99 1.852,0.99 1.85,0.991 1.844,0.993 1.823,0.99 1.799,0.987 1.773,0.982 1.747,0.981 1.715,0.98 1.679,0.985 1.647,1.009 1.625,1.024 1.625,1.051 1.646,1.069 1.682,1.098 1.691,1.113 1.693,1.119 1.692,1.12 1.691,1.126 1.687,1.132 1.683,1.139 1.678,1.146 1.673,1.154 1.668,1.163 1.663,1.175 1.66,1.189 1.656,1.218 1.665,1.25 1.691,1.286 1.694,1.291 1.718,1.305 1.723,1.307 1.77,1.315 1.819,1.32 1.865,1.326 1.91,1.332 1.943,1.338 1.965,1.347 1.984,1.355 1.989,1.362 1.99,1.372 1.991,1.389 2.047,1.663 2.1,1.652 2.802,1.501 3.11,1.251 3.506,0.704 3.515,0.691 3.511,0.665 3.498,0.654 L 3.447,0.611 C 3.434,0.6 3.402,0.596 3.387,0.603 L 3.353,0.62 3.334,0.619 C 3.358,0.556 3.389,0.527 3.454,0.495 l 0.019,0 C 3.475,0.503 3.484,0.519 3.484,0.519 3.499,0.548 3.533,0.555 3.561,0.535 3.639,0.48 3.66,0.392 3.662,0.311 3.665,0.232 3.648,0.148 3.635,0.085 3.627,0.04 3.581,0.03 3.548,0.064 3.51,0.105 3.427,0.191 3.337,0.258 3.292,0.292 3.247,0.32 3.208,0.336 3.174,0.35 3.152,0.351 3.139,0.348 L 3.044,0.294 C 3.047,0.289 3.129,0.259 3.129,0.259 3.225,0.207 3.266,0.168 3.343,0.101 3.418,0.036 3.534,0.007 3.605,-0.061 l 0.019,-0.004 0.013,0.013 C 3.673,-0.014 3.713,-0.029 3.724,-0.075 3.845,-0.585 3.712,-1.309 3.16,-1.736 3.156,-1.739 3.13,-1.747 3.125,-1.747 l -0.064,0 c -0.024,0 -0.046,0.019 -0.047,0.038 -10e-4,0.04 -0.012,0.073 -0.027,0.107 -0.017,0.037 -0.037,0.073 -0.053,0.115 -0.002,0.006 0.003,0.031 0.007,0.037 0.061,0.07 0.058,0.124 0.028,0.175 C 2.936,-1.218 2.87,-1.165 2.795,-1.106 2.789,-1.102 2.779,-1.078 2.78,-1.071 2.803,-0.946 2.735,-0.922 2.63,-0.934 2.513,-0.948 2.367,-1.013 2.297,-1.068 2.295,-1.069 2.275,-1.078 2.273,-1.078 2.155,-1.099 2.041,-1.126 1.922,-1.142 1.92,-1.143 1.898,-1.141 1.896,-1.14 c -0.058,0.019 -0.11,0.041 -0.161,0.065 -0.05,0.024 -0.098,0.049 -0.15,0.076 -0.005,0.003 -0.021,0.023 -0.021,0.029 -0.003,0.017 -0.009,0.039 -0.02,0.056 -0.011,0.018 -0.02,0.02 -0.024,0.02 -0.027,-0.001 -0.049,0.019 -0.048,0.041 0.003,0.054 0,0.101 -0.006,0.147 -0.006,0.048 -0.015,0.096 -0.022,0.149 -0.02,0.137 0.013,0.211 0.067,0.262 0.012,0.011 0.025,0.021 0.037,0.029 l 0.032,0.022 c 0.018,0.013 0.028,0.023 0.033,0.034 0.005,0.01 0.007,0.022 0.009,0.036 0.002,0.015 0.002,0.031 0.003,0.047 0.002,0.034 0.005,0.077 0.028,0.118 0.021,0.038 0.534,0.307 0.595,0.32 C 2.283,0.319 2.31,0.302 2.308,0.272 2.307,0.242 2.31,0.219 2.323,0.2 2.338,0.196 2.359,0.194 2.388,0.197 c 0.035,0.004 0.07,0.013 0.097,0.02 0.004,0.002 0.032,0 0.037,-0.002 0.113,-0.049 0.184,-0.014 0.197,0.081 0.002,0.02 0.027,0.038 0.05,0.038 0.407,0 0.27,0.419 0.085,0.215 C 2.84,0.533 2.808,0.528 2.788,0.538 L 2.671,0.6 2.64,0.592 C 2.64,0.587 2.642,0.581 2.644,0.574 2.651,0.558 2.662,0.541 2.675,0.525 2.708,0.48 2.656,0.438 2.604,0.469 2.581,0.482 2.543,0.507 2.497,0.535 2.452,0.562 2.401,0.592 2.349,0.616 2.297,0.64 2.251,0.655 2.216,0.658 2.19,0.66 2.176,0.655 2.167,0.645 2.177,0.629 2.182,0.62 2.184,0.611 2.187,0.598 2.187,0.578 2.17,0.561 2.147,0.538 2.117,0.539 2.1,0.544 2.09,0.547 2.079,0.552 2.068,0.558 1.978,0.52 1.945,0.483 1.926,0.441 1.914,0.414 1.907,0.386 1.9,0.353 1.891,0.317 1.882,0.278 1.868,0.232 1.865,0.224 1.843,0.205 1.834,0.203 L 1.611,0.145 C 1.592,0.14 1.563,0.15 1.554,0.165 1.519,0.222 1.52,0.298 1.532,0.353 c 0.003,0.013 0.027,0.032 0.043,0.034 0.054,0.007 0.096,0.01 0.129,0.014 0.034,0.005 0.045,0.009 0.048,0.011 10e-4,0.003 0.004,0.009 0.005,0.019 0,0.017 -0.003,0.042 -0.011,0.081 l -0.044,0.03 z m -6.73,-3.917 -0.602,-1.152 -0.125,0 -0.589,1.152 0.334,0 0.326,-0.672 0.307,0.672 0.349,0 z m 2.032,0 -0.602,-1.152 -0.125,0 -0.589,1.152 0.334,0 0.326,-0.672 0.307,0.672 0.349,0 z m 1.275,-1.152 -0.307,0 -0.122,0.236 -0.48,0 -0.12,-0.236 -0.305,0 0.603,1.152 0.124,0 0.607,-1.152 z m -0.542,0.46 -0.132,0.258 -0.124,-0.258 0.256,0 z m 2.486,-0.311 c -0.031,-0.024 -0.231,-0.166 -0.514,-0.166 -0.362,0 -0.642,0.269 -0.642,0.593 0,0.322 0.28,0.591 0.642,0.591 0.274,0 0.481,-0.14 0.514,-0.162 l 0,-0.269 c -0.06,0.038 -0.273,0.162 -0.514,0.162 -0.191,0 -0.346,-0.144 -0.346,-0.322 0,-0.18 0.155,-0.324 0.346,-0.324 0.236,0 0.452,0.128 0.514,0.168 l 0,-0.271 z m 1.636,0.425 c 0,-0.32 -0.289,-0.591 -0.654,-0.591 -0.364,0 -0.651,0.271 -0.651,0.593 0,0.32 0.289,0.589 0.651,0.589 0.365,-0.002 0.654,-0.269 0.654,-0.591 m -0.298,0 c 0,0.18 -0.16,0.324 -0.356,0.324 -0.193,0 -0.355,-0.144 -0.355,-0.322 0,-0.18 0.162,-0.324 0.355,-0.324 0.196,0 0.356,0.144 0.356,0.322 m 1.763,-0.574 -0.129,0 -0.749,0.656 c 0,0 0.006,-0.047 0.006,-0.107 l 0,-0.549 -0.286,0 0,1.149 0.129,0 0.753,-0.675 c 0,0 -0.009,0.055 -0.009,0.095 l 0,0.58 0.285,0 0,-1.149 z m 2.194,0 -0.307,0 -0.122,0.236 -0.48,0 -0.12,-0.236 -0.305,0 0.603,1.152 0.124,0 0.607,-1.152 z m -0.542,0.46 -0.132,0.258 -0.124,-0.258 0.256,0 z m 1.859,-0.291 c -0.182,-0.14 -0.36,-0.184 -0.545,-0.184 -0.373,0 -0.671,0.271 -0.671,0.591 0,0.32 0.289,0.589 0.653,0.589 0.303,0 0.492,-0.129 0.523,-0.149 l 0,-0.253 c -0.065,0.033 -0.307,0.151 -0.518,0.151 -0.202,0 -0.371,-0.151 -0.374,-0.338 -0.002,-0.187 0.183,-0.338 0.392,-0.338 0.08,0 0.182,0.016 0.244,0.056 l 0,0.298 0.294,0 0.002,-0.423 z m 1.515,0.4 c 0,-0.358 -0.223,-0.584 -0.581,-0.584 -0.36,0 -0.577,0.226 -0.577,0.587 l 0,0.577 0.286,0 0,-0.577 c 0,-0.198 0.105,-0.32 0.291,-0.32 0.187,0 0.292,0.122 0.292,0.317 l 0,0.58 0.289,0 0,-0.58 z m 1.495,-0.569 -0.306,0 -0.123,0.236 -0.48,0 -0.12,-0.236 -0.304,0 0.602,1.152 0.125,0 0.606,-1.152 z m -0.542,0.46 -0.131,0.258 -0.124,-0.258 0.255,0 z m -13.845,-0.46 -0.249,0 0,1.129 0.249,0 0,-1.129 z"
             style="fill:#00a5d6;fill-opacity:1;fill-rule:nonzero;stroke:none"
             id="path90726" />
        </g>
        <path
           inkscape:connector-curvature="0"
           d="m 713.044,481.366 0.066,0 0,-0.549 -0.066,0 0,0.549 z m -9.591,-0.348 0.295,0 -0.148,0.296 -0.147,-0.296 z m -0.176,-0.201 0.283,0.549 0.081,0 0.282,-0.549 -0.075,0 -0.071,0.142 -0.354,0 -0.072,-0.142 -0.074,0 z m 5.331,0 0,0.549 0.322,0 c 0.111,0 0.212,-0.032 0.212,-0.157 0,-0.126 -0.101,-0.158 -0.212,-0.158 l -0.255,0 0,-0.234 -0.067,0 z m 0.067,0.49 0,-0.197 0.238,0 c 0.11,0 0.166,0.023 0.166,0.098 0,0.075 -0.056,0.099 -0.166,0.099 l -0.238,0 z m 1.123,-0.289 0.294,0 -0.147,0.296 -0.147,-0.296 z m -0.176,-0.201 0.282,0.549 0.082,0 0.281,-0.549 -0.074,0 -0.071,0.142 -0.354,0 -0.072,-0.142 -0.074,0 z m -7.428,0.113 0.052,0.044 c 0.031,-0.043 0.084,-0.112 0.249,-0.112 0.084,0 0.2,0.024 0.2,0.109 0,0.167 -0.479,0.021 -0.479,0.244 0,0.117 0.108,0.164 0.258,0.164 0.144,0 0.234,-0.059 0.271,-0.112 l -0.048,-0.04 c -0.023,0.026 -0.075,0.096 -0.225,0.096 -0.11,0 -0.188,-0.028 -0.188,-0.098 0,-0.166 0.479,-0.007 0.479,-0.254 0,-0.092 -0.089,-0.168 -0.276,-0.168 -0.18,0 -0.246,0.075 -0.293,0.127 m 2.274,-0.113 0,0.549 0.094,0 0.408,-0.452 0,0.452 0.067,0 0,-0.549 -0.067,0 -0.439,0.49 0,-0.49 -0.063,0 z m 1.241,0 0,0.549 0.066,0 0,-0.293 0.374,0.293 0.102,0 -0.268,-0.207 0.308,-0.342 -0.089,0 -0.271,0.302 -0.156,-0.122 0,-0.18 -0.066,0 z m 1.378,0 0,0.49 -0.265,0 0,0.059 0.596,0 0,-0.059 -0.265,0 0,-0.49 -0.066,0 z m 4.258,0.549 0,-0.323 c 0,-0.199 -0.155,-0.24 -0.282,-0.24 -0.128,0 -0.282,0.041 -0.282,0.24 l 0,0.323 0.066,0 0,-0.323 c 0,-0.127 0.081,-0.184 0.216,-0.184 0.135,0 0.216,0.057 0.216,0.184 l 0,0.323 0.066,0 z m 0.652,-0.549 0,0.549 0.066,0 0,-0.49 0.433,0 0,-0.059 -0.499,0 z"
           style="fill:#573538;fill-opacity:1;fill-rule:nonzero;stroke:none"
           id="path90728" />
        <g
           id="g90730"
           transform="translate(713.0443,481.366)">
          <path
             inkscape:connector-curvature="0"
             d="m 0,0 0.066,0 0,-0.549 L 0,-0.549 0,0 z m -9.591,-0.348 0.295,0 -0.148,0.296 -0.147,-0.296 z M -9.767,-0.549 -9.484,0 l 0.081,0 0.282,-0.549 -0.075,0 -0.071,0.142 -0.354,0 -0.072,-0.142 -0.074,0 z m 5.331,0 0,0.549 0.322,0 c 0.111,0 0.212,-0.032 0.212,-0.157 0,-0.126 -0.101,-0.158 -0.212,-0.158 l -0.255,0 0,-0.234 -0.067,0 z m 0.067,0.49 0,-0.197 0.238,0 c 0.11,0 0.166,0.023 0.166,0.098 0,0.075 -0.056,0.099 -0.166,0.099 l -0.238,0 z m 1.123,-0.289 0.294,0 -0.147,0.296 -0.147,-0.296 z M -3.422,-0.549 -3.14,0 l 0.082,0 0.281,-0.549 -0.074,0 -0.071,0.142 -0.354,0 -0.072,-0.142 -0.074,0 z m -7.428,0.113 0.052,0.044 c 0.031,-0.043 0.084,-0.112 0.249,-0.112 0.084,0 0.2,0.024 0.2,0.109 0,0.167 -0.479,0.021 -0.479,0.244 0,0.117 0.108,0.164 0.258,0.164 0.144,0 0.234,-0.059 0.271,-0.112 l -0.048,-0.04 c -0.023,0.026 -0.075,0.096 -0.225,0.096 -0.11,0 -0.188,-0.028 -0.188,-0.098 0,-0.166 0.479,-0.007 0.479,-0.254 0,-0.092 -0.089,-0.168 -0.276,-0.168 -0.18,0 -0.246,0.075 -0.293,0.127 z m 2.274,-0.113 0,0.549 0.094,0 0.408,-0.452 0,0.452 0.067,0 0,-0.549 -0.067,0 -0.439,0.49 0,-0.49 -0.063,0 z m 1.241,0 0,0.549 0.066,0 0,-0.293 0.374,0.293 0.102,0 -0.268,-0.207 0.308,-0.342 -0.089,0 -0.271,0.302 -0.156,-0.122 0,-0.18 -0.066,0 z m 1.378,0 0,0.49 -0.265,0 0,0.059 0.596,0 0,-0.059 -0.265,0 0,-0.49 -0.066,0 z M -1.699,0 l 0,-0.323 c 0,-0.199 -0.155,-0.24 -0.282,-0.24 -0.128,0 -0.282,0.041 -0.282,0.24 l 0,0.323 0.066,0 0,-0.323 c 0,-0.127 0.081,-0.184 0.216,-0.184 0.135,0 0.216,0.057 0.216,0.184 l 0,0.323 0.066,0 z m 0.652,-0.549 0,0.549 0.066,0 0,-0.49 0.433,0 0,-0.059 -0.499,0 z"
             style="fill:none;stroke:#573538;stroke-width:0.011;stroke-linecap:butt;stroke-linejoin:miter;stroke-miterlimit:3.86400008;stroke-opacity:1;stroke-dasharray:none"
             id="path90732" />
        </g>
      </g>
    </g>
  </g>
</svg>
